<?xml version="1.0" encoding="UTF-8" standalone="no"?>
<!-- Created with Inkscape (http://www.inkscape.org/) -->

<svg
   width="240mm"
   height="80mm"
   id="svg2"
   sodipodi:version="0.32"
   inkscape:version="1.3 (0e150ed, 2023-07-21)"
   sodipodi:docname="default.svg"
   version="1.0"
   viewBox="0 0 240 80"
   xml:space="preserve"
   xmlns:inkscape="http://www.inkscape.org/namespaces/inkscape"
   xmlns:sodipodi="http://sodipodi.sourceforge.net/DTD/sodipodi-0.dtd"
   xmlns="http://www.w3.org/2000/svg"
   xmlns:svg="http://www.w3.org/2000/svg"
   xmlns:rdf="http://www.w3.org/1999/02/22-rdf-syntax-ns#"
   xmlns:cc="http://creativecommons.org/ns#"
   xmlns:dc="http://purl.org/dc/elements/1.1/"><defs
     id="defs4"><marker
       style="overflow:visible"
       id="ConcaveTriangle"
       refX="0"
       refY="0"
       orient="auto-start-reverse"
       inkscape:stockid="Concave triangle arrow"
       markerWidth="2"
       markerHeight="2"
       viewBox="0 0 1 1"
       inkscape:isstock="true"
       inkscape:collect="always"
       preserveAspectRatio="xMidYMid"><path
         transform="scale(0.7)"
         d="M -2,-4 9,0 -2,4 c 2,-2.33 2,-5.66 0,-8 z"
         style="fill:context-stroke;fill-rule:evenodd;stroke:none"
         id="path7" /></marker></defs><sodipodi:namedview
     id="base"
     pagecolor="#ffffff"
     bordercolor="#000000"
     borderopacity="0.3"
     inkscape:pageopacity="0.0"
     inkscape:pageshadow="2"
     inkscape:zoom="0.7702315"
     inkscape:cx="421.95106"
     inkscape:cy="116.19883"
     inkscape:document-units="mm"
     inkscape:current-layer="layer1"
     inkscape:window-width="988"
     inkscape:window-height="724"
     inkscape:window-x="33"
     inkscape:window-y="22"
     width="12.8cm"
     height="9.6cm"
     units="cm"
     showgrid="true"
     gridspacingx="2mm"
     gridspacingy="2mm"
     grid_units="mm"
     gridempspacing="5"
     inkscape:object-paths="false"
     inkscape:grid-points="true"
     inkscape:grid-bbox="true"
     inkscape:guide-points="true"
     showguides="true"
     inkscape:guide-bbox="true"
     inkscape:showpageshadow="2"
     inkscape:pagecheckerboard="0"
     inkscape:deskcolor="#d1d1d1"><sodipodi:guide
       orientation="horizontal"
       position="0,285.62839"
       id="guide3988"
       inkscape:locked="false" /><sodipodi:guide
       orientation="horizontal"
       position="0,303.15559"
       id="guide4081"
       inkscape:locked="false" /></sodipodi:namedview><metadata
     id="metadata7"><rdf:RDF><cc:Work
         rdf:about=""><dc:format>image/svg+xml</dc:format><dc:type
           rdf:resource="http://purl.org/dc/dcmitype/StillImage" /></cc:Work></rdf:RDF></metadata><g
     inkscape:label="Layer 1"
     inkscape:groupmode="layer"
     id="layer1"><g
       inkscape:label="Layer 1"
       id="layer1-9"
       transform="translate(-2.4540736,-175.05641)"><path
         style="font-variation-settings:normal;opacity:1;vector-effect:none;fill:none;fill-opacity:1;stroke:#000000;stroke-width:0.276763;stroke-linecap:round;stroke-linejoin:round;stroke-miterlimit:4;stroke-dasharray:none;stroke-dashoffset:0;stroke-opacity:1;-inkscape-stroke:none;marker-end:url(#ConcaveTriangle);stop-color:#000000;stop-opacity:1"
         d="M 67.137225,237.52852 H 174.42209"
         id="path1" /><path
         style="font-variation-settings:normal;opacity:1;fill:none;fill-opacity:1;stroke:#000000;stroke-width:0.277;stroke-linecap:round;stroke-linejoin:miter;stroke-miterlimit:4;stroke-dasharray:none;stroke-dashoffset:0;stroke-opacity:1;marker-end:url(#ConcaveTriangle);paint-order:stroke fill markers;stop-color:#000000;stop-opacity:1"
         d="M 118.23869,251.82139 V 181.64313"
         id="path2" /><g
         inkscape:label=""
         transform="matrix(1.2427586,0,0,1.2824841,121.46427,239.84057)"
         id="g14"><g
           fill="#000000"
           fill-opacity="1"
           id="g13"
           transform="matrix(0.352778,0,0,0.352778,-0.99523,-0.57538)"><g
             id="g12"
             transform="translate(1.993,13.756)"><path
               d="m 12.5,-7.546875 c 0,-2.84375 -1.859375,-4.578125 -4.265625,-4.578125 -3.6875,0 -7.40625,3.96875 -7.40625,7.9375 0,2.703125 1.796875,4.546875 4.28125,4.546875 3.625,0 7.390625,-3.765625 7.390625,-7.90625 z M 5.21875,-0.03125 C 3.8125,-0.03125 2.3125,-1.0625 2.3125,-3.75 2.3125,-5.328125 2.875,-7.890625 4.28125,-9.609375 5.546875,-11.125 6.984375,-11.75 8.140625,-11.75 c 1.515625,0 2.984375,1.109375 2.984375,3.59375 0,1.53125 -0.65625,3.921875 -1.8125,5.5625 -1.25,1.75 -2.828125,2.5625 -4.09375,2.5625 z m 0,0"
               id="path6" /></g></g></g><g
         inkscape:label=""
         transform="matrix(0.282222,0,0,0.282222,167.19197,231.06863)"
         id="g4"><g
   fill="#000000"
   fill-opacity="1"
   id="g2"
   transform="matrix(1.25,0,0,1.25,-3.09672,-2.26281)">&#10;    <g
   id="use1"
   transform="translate(1.993,9.4040003)">&#10;      <path
   d="m 8.15625,-7.03125 c -0.546875,0.109375 -0.75,0.515625 -0.75,0.84375 0,0.421875 0.328125,0.5625 0.5625,0.5625 0.515625,0 0.875,-0.453125 0.875,-0.921875 0,-0.71875 -0.8125,-1.046875 -1.546875,-1.046875 -1.046875,0 -1.625,1.03125 -1.78125,1.359375 -0.40625,-1.296875 -1.46875,-1.359375 -1.78125,-1.359375 -1.75,0 -2.6875,2.25 -2.6875,2.640625 0,0.0625 0.078125,0.15625 0.1875,0.15625 0.140625,0 0.171875,-0.109375 0.21875,-0.171875 C 2.03125,-6.890625 3.1875,-7.25 3.6875,-7.25 c 0.765625,0 0.921875,0.71875 0.921875,1.140625 0,0.375 -0.09375,0.765625 -0.296875,1.59375 L 3.71875,-2.15625 c -0.25,1.03125 -0.75,1.984375 -1.671875,1.984375 -0.078125,0 -0.515625,0 -0.875,-0.21875 0.625,-0.125 0.75,-0.640625 0.75,-0.84375 0,-0.34375 -0.25,-0.5625 -0.578125,-0.5625 -0.40625,0 -0.859375,0.375 -0.859375,0.921875 0,0.71875 0.8125,1.046875 1.546875,1.046875 0.828125,0 1.40625,-0.65625 1.78125,-1.359375 0.265625,1.015625 1.125,1.359375 1.765625,1.359375 1.75,0 2.6875,-2.25 2.6875,-2.640625 0,-0.078125 -0.0625,-0.15625 -0.171875,-0.15625 -0.15625,0 -0.171875,0.09375 -0.21875,0.234375 -0.46875,1.515625 -1.46875,2.21875 -2.25,2.21875 -0.59375,0 -0.921875,-0.453125 -0.921875,-1.15625 0,-0.375 0.0625,-0.65625 0.34375,-1.78125 l 0.59375,-2.34375 C 5.90625,-6.484375 6.484375,-7.25 7.28125,-7.25 c 0.03125,0 0.515625,0 0.875,0.21875 z m 0,0"
   id="path4" />&#10;    </g>&#10;  </g>&#10;</g><g
         inkscape:label=""
         transform="matrix(0.282222,0,0,0.282222,106.953,213.337)"
         id="g7"><g
   fill="#000000"
   fill-opacity="1"
   id="g6"
   transform="matrix(1.25,0,0,1.25,8.111477,-121.89673)">&#10;    <g
   id="g5"
   transform="translate(1.993,9.4049997)">&#10;      <path
   d="m 4.53125,1.921875 c -0.46875,0.65625 -1.140625,1.25 -1.984375,1.25 -0.203125,0 -1.03125,-0.03125 -1.296875,-0.828125 0.0625,0.015625 0.140625,0.015625 0.171875,0.015625 0.53125,0 0.875,-0.453125 0.875,-0.84375 0,-0.390625 -0.328125,-0.53125 -0.59375,-0.53125 -0.28125,0 -0.875,0.203125 -0.875,1.046875 0,0.875 0.734375,1.484375 1.71875,1.484375 1.71875,0 3.46875,-1.59375 3.9375,-3.5 l 1.6875,-6.71875 c 0.03125,-0.078125 0.0625,-0.1875 0.0625,-0.28125 0,-0.265625 -0.203125,-0.4375 -0.46875,-0.4375 -0.15625,0 -0.515625,0.0625 -0.65625,0.59375 L 5.84375,-1.78125 C 5.75,-1.46875 5.75,-1.421875 5.609375,-1.234375 5.265625,-0.75 4.703125,-0.171875 3.875,-0.171875 c -0.96875,0 -1.046875,-0.953125 -1.046875,-1.40625 0,-0.984375 0.453125,-2.3125 0.921875,-3.546875 0.1875,-0.5 0.296875,-0.75 0.296875,-1.09375 0,-0.71875 -0.515625,-1.375 -1.359375,-1.375 -1.578125,0 -2.21875,2.5 -2.21875,2.640625 0,0.0625 0.0625,0.15625 0.1875,0.15625 0.15625,0 0.171875,-0.078125 0.234375,-0.3125 C 1.3125,-6.5625 1.96875,-7.25 2.640625,-7.25 c 0.15625,0 0.4375,0 0.4375,0.5625 0,0.453125 -0.1875,0.953125 -0.4375,1.609375 -0.84375,2.25 -0.84375,2.828125 -0.84375,3.234375 0,1.640625 1.171875,2.015625 2.03125,2.015625 0.5,0 1.109375,-0.15625 1.71875,-0.796875 L 5.5625,-0.609375 C 5.296875,0.40625 5.125,1.078125 4.53125,1.921875 Z m 0,0"
   id="path5" />&#10;    </g>&#10;  </g>&#10;</g></g></g><inkscape:templateinfo><inkscape:name>sss</inkscape:name><inkscape:date>2024-06-15</inkscape:date></inkscape:templateinfo></svg>
